<svg xmlns="http://www.w3.org/2000/svg" viewBox="0 0 32 32" width="32" height="32">
  <defs>
    <linearGradient id="bg" x1="0%" y1="0%" x2="100%" y2="100%">
      <stop offset="0%" stop-color="#1e3a8a"/>
      <stop offset="100%" stop-color="#2563eb"/>
    </linearGradient>
    <linearGradient id="accent" x1="0%" y1="0%" x2="100%" y2="100%">
      <stop offset="0%" stop-color="#67e8f9"/>
      <stop offset="100%" stop-color="#60a5fa"/>
    </linearGradient>
  </defs>
  <rect width="32" height="32" rx="7" fill="url(#bg)"/>
  <!-- Left bubble -->
  <path d="M 5.5 6 h 11 q 2 0 2 2 v 5.5 q 0 2 -2 2 h -5.5 l -2.5 2.5 v -2.5 h -3 q -2 0 -2 -2 v -5.5 q 0 -2 2 -2 z"
        fill="white" fill-opacity="0.2" stroke="white" stroke-opacity="0.35" stroke-width="0.5"/>
  <text x="11" y="13.5" text-anchor="middle" font-family="Inter, sans-serif" font-size="7" font-weight="700" fill="white" fill-opacity="0.95">Hi</text>
  <!-- Right bubble -->
  <path d="M 15 15 h 11 q 2 0 2 2 v 5.5 q 0 2 -2 2 h -5 l -2.5 2.5 v -2.5 h -3.5 q -2 0 -2 -2 v -5.5 q 0 -2 2 -2 z"
        fill="white" fill-opacity="0.12" stroke="url(#accent)" stroke-opacity="0.5" stroke-width="0.5"/>
  <text x="20.5" y="22.5" text-anchor="middle" font-family="Inter, sans-serif" font-size="6" font-weight="700" fill="url(#accent)">你好</text>
</svg>
